<svg enable-background="new 0 0 105 36" viewBox="0 0 105 36" xmlns="http://www.w3.org/2000/svg" xmlns:xlink="http://www.w3.org/1999/xlink"><linearGradient id="a"><stop offset=".477" stop-color="#fff" stop-opacity="0"/><stop offset=".926" stop-color="#fff" stop-opacity=".86"/><stop offset="1" stop-color="#fff"/></linearGradient><radialGradient id="b" cx="17.9907" cy="-194.2187" gradientTransform="matrix(.9428 0 0 -.9428 1.0303 -160.286)" gradientUnits="userSpaceOnUse" r="9.8678" xlink:href="#a"/><linearGradient id="c" gradientTransform="matrix(1 0 0 -1 0 -171.1102)" gradientUnits="userSpaceOnUse" x1="18" x2="18" y1="-199.8195" y2="-201.9691"><stop offset="0" stop-color="#fff" stop-opacity="0"/><stop offset=".879" stop-color="#fff" stop-opacity=".88"/><stop offset="1" stop-color="#fff"/></linearGradient><linearGradient id="d" gradientTransform="matrix(1 0 0 -1 0 -171.1102)" gradientUnits="userSpaceOnUse" x1="16.7625" x2="16.6347" y1="-185.0411" y2="-188.7027"><stop offset=".001" stop-color="#fff"/><stop offset=".048" stop-color="#fff" stop-opacity=".89"/><stop offset=".426" stop-color="#fff" stop-opacity="0"/><stop offset=".481" stop-color="#fff" stop-opacity=".1"/><stop offset="1" stop-color="#fff"/></linearGradient><linearGradient id="e" gradientTransform="matrix(1 0 0 -1 0 -171.1102)" gradientUnits="userSpaceOnUse" x1="20.7385" x2="20.6075" y1="-192.2518" y2="-196.0033"><stop offset=".001" stop-color="#fff"/><stop offset=".385" stop-color="#fff" stop-opacity=".1"/><stop offset=".426" stop-color="#fff" stop-opacity="0"/><stop offset=".481" stop-color="#fff" stop-opacity=".1"/><stop offset="1" stop-color="#fff"/></linearGradient><radialGradient id="f" cx="18" cy="-186.6015" gradientTransform="matrix(.9428 0 0 -.9428 1.0303 -160.286)" gradientUnits="userSpaceOnUse" r="11.3916" xlink:href="#a"/><radialGradient id="g" cx="17.9907" cy="-179.2897" gradientTransform="matrix(.9428 0 0 -.9428 1.0303 -160.286)" gradientUnits="userSpaceOnUse" r="9.854"><stop offset="0" stop-color="#fff" stop-opacity="0"/><stop offset=".859" stop-color="#fff" stop-opacity=".86"/><stop offset="1" stop-color="#fff"/></radialGradient><path d="m17.7 29.4c-6.1 0-12.7-1.6-12.7-4.4h1c0 1.5 4.8 3.3 11.7 3.4 7 0 12.2-1.8 12.2-3.4h1c.1 2.8-6.7 4.4-13.2 4.4z" fill="#fff"/><path d="m18.3 20.6c6.1.1 12.7 1.6 12.7 4.4h-1c0-1.5-4.8-3.3-11.7-3.4-7 0-12.3 1.8-12.3 3.4h-1c0-2.7 6.8-4.4 13.3-4.4z" fill="url(#b)"/><path d="m18 33c-8.2 0-15-6.7-15-15 0-8.2 6.7-15 15-15 5.5 0 10.6 3 13.2 7.9 3.9 7.3 1.2 16.4-6.1 20.3-2.2 1.2-4.6 1.8-7.1 1.8zm0-29c-7.7 0-14 6.3-14 14s6.3 14 14 13.9c7.7 0 14-6.3 13.9-14 0-2.3-.6-4.6-1.7-6.6-2.3-4.4-7.1-7.3-12.2-7.3z" fill="#fff"/><path d="m18 33c-2.2 0-3.9-.9-3.9-2.1h1c0 .5 1.1 1.1 2.8 1.1s2.8-.7 2.8-1.1h1c.2 1.2-1.5 2.1-3.7 2.1z" fill="#fff"/><path d="m18 28.7c2.2 0 3.9.9 3.9 2.1h-1c0-.5-1.1-1.1-2.8-1.1s-2.8.7-2.8 1.1h-1c-.2-1.2 1.5-2.1 3.7-2.1z" fill="url(#c)"/><g fill="#fff"><circle cx="23.7" cy="28.5" r="1.3"/><circle cx="12.2" cy="7.5" r="1.4"/><path d="m11.8 7.7.7-.4 3.6 6.6-.7.4z"/></g><path d="m15.5 14.3.7-.4 1.8 3.3-.7.4z" fill="url(#d)"/><path d="m19.4 21.5.7-.4 1.9 3.4-.7.4z" fill="url(#e)"/><path d="m21.3 24.9.7-.4 2 3.7-.7.4z" fill="#fff"/><path d="m17.3 17.6.7-.4 2.1 3.9-.7.4z" fill="#fff"/><path d="m17.7 22.7c-7.1 0-14.7-1.7-14.7-4.7h1c0 1.7 5.6 3.7 13.6 3.7 8.2 0 14.3-2 14.3-3.7h1c.1 3-7.7 4.7-15.2 4.7z" fill="#fff"/><path d="m18.4 13.3c7.1 0 14.6 1.7 14.6 4.7h-1c0-1.7-5.6-3.7-13.6-3.7-8.3 0-14.4 1.9-14.4 3.7h-1c0-3 7.8-4.7 15.4-4.7z" fill="url(#f)"/><path d="m17.7 15.4c-6.1-.1-12.6-1.6-12.6-4.4h1c0 1.5 4.8 3.3 11.6 3.4 7 0 12.2-1.8 12.2-3.4h1c0 2.7-6.7 4.4-13.2 4.4z" fill="#fff"/><path d="m18.3 6.5c6.1.1 12.6 1.6 12.6 4.4h-1c0-1.5-4.8-3.3-11.6-3.4-7 0-12.2 1.8-12.2 3.4h-1.1c.1-2.7 6.8-4.4 13.3-4.4z" fill="url(#g)"/><path d="m15.2 4.8h-1c0-1.2 2-1.7 3.9-1.7s3.9.5 3.9 1.7h-1c-.2-.2-1.2-.8-3-.8s-2.8.5-2.8.8z" fill="#fff"/><path d="m18 6.5c-1.9 0-3.9-.5-3.9-1.7h1c.1.2 1 .7 2.8.7s2.8-.5 2.8-.7h1c.2 1.1-1.8 1.7-3.7 1.7z" fill="#fff"/><path d="m53.5 30.5h-2.4c-1.9 0-2.7-1-2.7-2.7v-1.3c-3.7-.5-6.1-3.4-6.1-8.6 0-5.6 2.9-8.7 7.2-8.7s7.2 3 7.2 8.7c0 5-2.2 7.9-5.8 8.5v1.7h2.5zm.3-11.2v-2.6c0-3-1.7-4.9-4.3-4.9s-4.3 1.9-4.3 4.9v2.6c0 3 1.7 4.9 4.3 4.9s4.3-1.9 4.3-4.9zm5-9v-.4c0-.8.5-1.4 1.6-1.4s1.5.6 1.5 1.4v.4c0 .8-.4 1.4-1.5 1.4s-1.6-.6-1.6-1.4zm.3 3.6h2.6v12.5h-2.6zm4.5 10.4 1.7-1.5c.9 1.1 2 1.8 3.5 1.8s2.3-.6 2.3-1.7c0-.8-.5-1.4-1.8-1.6l-1.2-.1c-2.5-.3-4.1-1.4-4.1-3.7 0-2.4 1.9-3.8 4.6-3.8 2.3 0 3.5.7 4.7 2l-1.6 1.5c-.7-.8-1.7-1.4-3-1.4-1.4 0-2.1.6-2.1 1.6s.6 1.4 1.9 1.6l1.2.1c2.7.4 4 1.6 4 3.6 0 2.4-1.9 4-4.9 4-2.5-.1-4.1-1-5.2-2.4zm12-15.7h2.6v10.9h.1l1.7-2.2 3-3.4h3l-4.3 4.8 4.9 7.7h-3.1l-3.5-6-1.7 1.9v4.1h-2.6zm12.8 1.7v-.4c0-.8.5-1.4 1.6-1.4s1.5.6 1.5 1.4v.4c0 .8-.4 1.4-1.5 1.4s-1.6-.6-1.6-1.4zm.3 3.6h2.6v12.5h-2.6zm9.4 12.4c-1.8 0-2.8-1-2.8-2.7v-7.6h-1.9v-2.1h1.1c.9 0 1.2-.4 1.2-1.2v-2.2h2.3v3.4h2.6v2.1h-2.6v8.2h2.4v2.1z" fill="#fff"/></svg>